<svg width="598" height="750" viewBox="0 0 598 750" fill="none" xmlns="http://www.w3.org/2000/svg">
<path d="M220.165 241.117V386.306H377.808V241.117L298.335 190.56L220.165 241.117Z" fill="white"/>
<path d="M298.349 0C134.192 0 0 133.522 0 296.86C0 431.678 93.8039 550.94 224.087 584.645L284.017 738.908C286.623 745.39 291.834 749.279 299.651 749.279C306.166 749.279 312.68 745.39 315.285 738.908L371.307 585.941C502.893 553.533 598 434.271 598 298.156C596.697 133.522 463.808 0 298.349 0ZM475.534 304.638L422.118 269.637V430.382H175.882V269.637L122.466 304.638L97.7124 268.34L286.623 146.485C294.44 141.3 303.56 141.3 310.074 146.485L498.985 268.34L475.534 304.638Z" fill="white"/>
</svg>
