<svg width="127" height="160" viewBox="0 0 127 160" fill="none" xmlns="http://www.w3.org/2000/svg">
<rect x="16" y="25" width="90" height="77" fill="white"/>
<path d="M46.6157 52.0439V82.8131H79.8575V52.0439L63.0992 41.3296L46.6157 52.0439Z" fill="#930000"/>
<path d="M63.0991 0.945068C28.4837 0.945068 0.187012 29.2418 0.187012 63.8572C0.187012 92.4286 19.9672 117.703 47.4398 124.846L60.0771 157.538C60.6266 158.912 61.7255 159.736 63.3738 159.736C64.7474 159.736 66.1211 158.912 66.6705 157.538L78.4837 125.121C106.231 118.253 126.286 92.978 126.286 64.1319C126.011 29.2418 97.9892 0.945068 63.0991 0.945068ZM100.462 65.5055L89.198 58.0879V92.1539H37.2749V58.0879L26.0112 65.5055L20.7914 57.8132L60.6266 31.989C62.2749 30.8901 64.198 30.8901 65.5716 31.989L105.407 57.8132L100.462 65.5055Z" fill="#930000"/>
</svg>
