<svg width="127" height="160" viewBox="0 0 127 160" fill="none" xmlns="http://www.w3.org/2000/svg">
<path d="M46.6157 52.0439V82.8131H79.8575V52.0439L63.0992 41.3296L46.6157 52.0439Z" fill="#07A116"/>
<path d="M63.0991 0.945068C28.4837 0.945068 0.187012 29.2418 0.187012 63.8572C0.187012 92.4286 19.9672 117.703 47.4398 124.846L60.0771 157.538C60.6266 158.912 61.7255 159.736 63.3738 159.736C64.7474 159.736 66.1211 158.912 66.6705 157.538L78.4837 125.121C106.231 118.253 126.286 92.978 126.286 64.1319C126.011 29.2418 97.9892 0.945068 63.0991 0.945068ZM100.462 65.5055L89.198 58.0879V92.1539H37.2749V58.0879L26.0112 65.5055L20.7914 57.8132L60.6266 31.989C62.2749 30.8901 64.198 30.8901 65.5716 31.989L105.407 57.8132L100.462 65.5055Z" fill="#07A116"/>
<ellipse cx="63.5" cy="64" rx="63.5" ry="63" fill="#07A216"/>
<path d="M94.9375 93.8984H89.5271V30.0508C89.5271 28.9182 88.6089 28 87.4763 28H40.524C39.3914 28 38.4732 28.9182 38.4732 30.0508V93.8984H33.063C31.9304 93.8984 31.0122 94.8166 31.0122 95.9492C31.0122 97.0818 31.9304 98 33.063 98H94.9376C96.0702 98 96.9884 97.0818 96.9884 95.9492C96.9884 94.8166 96.0702 93.8984 94.9375 93.8984V93.8984ZM57.0097 93.8984V79.9174H70.9907V93.8984H57.0097ZM75.0922 93.8984V77.8667C75.0922 76.7341 74.174 75.8159 73.0414 75.8159H54.9589C53.8263 75.8159 52.9081 76.7341 52.9081 77.8667V93.8984H42.5748V32.1016H85.4256V93.8984H75.0922Z" fill="white"/>
<path d="M59.5909 37.0657H49.541C48.4084 37.0657 47.4902 37.9839 47.4902 39.1165V49.1664C47.4902 50.299 48.4084 51.2172 49.541 51.2172H59.5909C60.7235 51.2172 61.6417 50.299 61.6417 49.1664V39.1165C61.6417 37.9839 60.7235 37.0657 59.5909 37.0657V37.0657ZM57.5402 47.1156H51.5918V41.1672H57.5402V47.1156Z" fill="white"/>
<path d="M78.4596 37.0657H68.4097C67.2771 37.0657 66.3589 37.9839 66.3589 39.1165V49.1664C66.3589 50.299 67.2771 51.2172 68.4097 51.2172H78.4596C79.5922 51.2172 80.5104 50.299 80.5104 49.1664V39.1165C80.5104 37.9839 79.5922 37.0657 78.4596 37.0657V37.0657ZM76.4088 47.1156H70.4604V41.1672H76.4088V47.1156Z" fill="white"/>
<path d="M59.5909 56.1577H49.541C48.4084 56.1577 47.4902 57.0759 47.4902 58.2085V68.2584C47.4902 69.391 48.4084 70.3092 49.541 70.3092H59.5909C60.7235 70.3092 61.6417 69.391 61.6417 68.2584V58.2085C61.6417 57.0759 60.7235 56.1577 59.5909 56.1577ZM57.5402 66.2076H51.5918V60.2593H57.5402V66.2076Z" fill="white"/>
<path d="M78.4596 56.1577H68.4097C67.2771 56.1577 66.3589 57.0759 66.3589 58.2085V68.2584C66.3589 69.391 67.2771 70.3092 68.4097 70.3092H78.4596C79.5922 70.3092 80.5104 69.391 80.5104 68.2584V58.2085C80.5104 57.0759 79.5922 56.1577 78.4596 56.1577ZM76.4088 66.2076H70.4604V60.2593H76.4088V66.2076Z" fill="white"/>
</svg>
